<svg width="21" height="25" viewBox="0 0 21 25" fill="none" xmlns="http://www.w3.org/2000/svg">
    <path fill-rule="evenodd" clip-rule="evenodd" d="M15.1824 5.89809C14.9872 5.64081 14.8432 5.35206 14.7577 5.05871C14.2202 3.21383 12.5156 1.86787 10.4999 1.86787C8.48433 1.86787 6.7797 3.21383 6.24219 5.05871C6.15672 5.35206 6.01268 5.64081 5.81745 5.89809H15.1824ZM2.0771 7.19809V23.6999H18.923V7.19809H2.0771ZM4.99408 4.69507C4.85357 5.17737 4.43839 5.554 3.93604 5.554H1.7771C1.22481 5.554 0.7771 6.00171 0.7771 6.55399V23.9999C0.7771 24.5522 1.22481 24.9999 1.7771 24.9999H19.223C19.7753 24.9999 20.223 24.5522 20.223 23.9999V6.554C20.223 6.00171 19.7753 5.554 19.223 5.554H17.0638C16.5615 5.554 16.1463 5.17737 16.0058 4.69507C15.311 2.31036 13.109 0.567871 10.4999 0.567871C7.89091 0.567871 5.68887 2.31036 4.99408 4.69507Z" fill="black"/>
    </svg>    