<svg width="19" height="23" viewBox="0 0 19 23" fill="none" xmlns="http://www.w3.org/2000/svg">
    <path d="M9.49954 10.4041C8.33701 10.4041 7.22209 9.9423 6.40006 9.12026C5.57802 8.29823 5.11621 7.18331 5.11621 6.02078C5.11621 4.85825 5.57802 3.74333 6.40006 2.9213C7.22209 2.09926 8.33701 1.63745 9.49954 1.63745C10.6621 1.63745 11.777 2.09926 12.599 2.9213C13.4211 3.74333 13.8829 4.85825 13.8829 6.02078C13.8829 7.18331 13.4211 8.29823 12.599 9.12026C11.777 9.9423 10.6621 10.4041 9.49954 10.4041Z" stroke="black" stroke-width="1.4" stroke-linecap="round"/>
    <path d="M0.73291 21.3625V20.2666C0.73291 18.5228 1.42563 16.8505 2.65868 15.6174C3.89173 14.3844 5.56411 13.6917 7.30791 13.6917H11.6912C13.435 13.6917 15.1074 14.3844 16.3405 15.6174C17.5735 16.8505 18.2662 18.5228 18.2662 20.2666V21.3625" stroke="black" stroke-width="1.4" stroke-linecap="round"/>
    </svg>    