<svg width="23" height="21" viewBox="0 0 23 21" fill="none" xmlns="http://www.w3.org/2000/svg">
    <path d="M21.3491 3.80685L21.3548 3.81735L21.3608 3.82765C21.5926 4.22328 21.7678 4.64943 21.8813 5.09369L21.882 5.09647C22.0025 5.56014 22.0599 6.03797 22.0525 6.51699L22.0524 6.52458L22.0524 6.53217C22.0582 7.43982 21.8192 8.33224 21.3607 9.11559L21.3562 9.12326L21.3519 9.13104C21.1277 9.53734 20.8427 9.91237 20.5097 10.2398L20.5096 10.2398L20.5054 10.244L11.501 19.2484L2.49659 10.244L2.49468 10.2421C2.15889 9.9089 1.86828 9.53306 1.63028 9.12424C1.41008 8.72438 1.23846 8.29964 1.11906 7.85904C1.0062 7.42487 0.949604 6.97736 0.949604 6.52776H0.949686L0.949522 6.51707C0.942207 6.038 0.999551 5.56013 1.12 5.09639L1.12005 5.0964L1.12191 5.08887C1.34665 4.18244 1.82045 3.35695 2.48977 2.7057L2.4898 2.70573L2.49575 2.6998C2.98873 2.20847 3.57242 1.81756 4.21442 1.54875C5.50483 1.01981 6.9515 1.01962 8.24202 1.54818C8.83917 1.80141 9.38888 2.15416 9.86779 2.59131L9.91848 2.65213L9.93881 2.67652L9.96126 2.69898L11.006 3.74375L11.501 4.23872L11.996 3.74375L13.0408 2.69898L13.0632 2.67652L13.0835 2.65213L13.1342 2.59131C13.6131 2.15416 14.1628 1.80141 14.76 1.54818C16.0505 1.01962 17.4972 1.01981 18.7876 1.54874C19.4296 1.81755 20.0133 2.20847 20.5063 2.6998L20.5062 2.69987L20.5143 2.70773C20.8474 3.02908 21.1289 3.3998 21.3491 3.80685Z" stroke="black" stroke-width="1.4"/>
    </svg>    