<svg width="226" height="39" viewBox="0 0 226 39" fill="none" xmlns="http://www.w3.org/2000/svg">
<path d="M3.12119 37.4935C4.0315 37.3069 4.94181 37.0936 6.06019 36.8537C5.56603 36.5072 5.25392 36.2672 4.94181 36.054C-2.1586 31.0423 -1.48237 20.2725 6.16423 16.2205C6.9705 15.794 7.30862 15.3408 7.2566 14.4078C7.17857 13.1815 7.28261 11.9286 7.23059 10.6757C7.17857 9.60935 7.62073 8.9429 8.45301 8.38309C9.10323 7.95656 9.67542 7.39675 10.2736 6.9169C8.63507 5.10417 8.66108 3.95788 10.4297 2.6783C10.2476 2.41172 10.0656 2.14514 9.8835 1.90522C10.0916 0.892222 11.47 0.892222 12.7445 1.90522C12.5624 2.11848 12.3803 2.35841 12.1983 2.57167C13.8108 4.27777 14.279 4.27777 15.8135 2.59833C17.7642 0.465696 23.4601 -0.733909 26.035 0.492354C27.7256 1.31875 29 2.54501 29 4.62433C29 6.35709 27.7256 8.06319 25.7229 8.67632C22.1857 9.7693 18.9086 8.88959 16.0476 6.67698C14.0189 5.10417 14.1229 4.94422 12.3023 6.9169C12.7185 7.29011 13.0826 7.84993 13.5768 8.00988C15.1113 8.56969 15.4494 9.71598 15.3193 11.1822C15.3193 11.2355 15.3193 11.2621 15.3193 11.3155C15.0593 13.9546 15.0593 16.4604 18.1803 17.4201C24.2144 22.2452 23.9803 31.5488 17.7122 36.054C17.4001 36.2672 17.0879 36.5072 16.5158 36.8804C17.9462 37.2003 19.1426 37.4668 20.3391 37.7334C20.3391 37.8134 20.313 37.8934 20.313 38C14.6171 38 8.89516 38 3.19922 38C3.17321 37.8134 3.1472 37.6534 3.12119 37.4935Z" fill="#4D2952"/>
<path d="M45.688 24C44.3867 24 43.3733 23.6587 42.648 22.976C41.9227 22.2933 41.56 21.3333 41.56 20.096V5.44C41.56 4.24533 41.912 3.30667 42.616 2.624C43.3413 1.94133 44.344 1.6 45.624 1.6H55.544C56.376 1.6 56.792 1.94133 56.792 2.624C56.792 2.92267 56.6853 3.15733 56.472 3.328C56.2587 3.49867 55.9493 3.584 55.544 3.584H45.656C45.144 3.584 44.728 3.75467 44.408 4.096C44.1093 4.43733 43.96 4.88533 43.96 5.44V11.552H53.112C53.944 11.552 54.36 11.8933 54.36 12.576C54.36 12.896 54.2427 13.1413 54.008 13.312C53.7947 13.4827 53.496 13.568 53.112 13.568H43.96V20.16C43.96 20.7147 44.1093 21.1627 44.408 21.504C44.728 21.8453 45.144 22.016 45.656 22.016H56.248C57.08 22.016 57.496 22.3467 57.496 23.008C57.496 23.328 57.3787 23.5733 57.144 23.744C56.9307 23.9147 56.632 24 56.248 24H45.688ZM65.9085 24.32C63.8178 24.32 62.1752 23.8613 60.9805 22.944C59.8072 22.0267 59.2205 20.7573 59.2205 19.136C59.2205 17.536 59.8392 16.2667 61.0765 15.328C62.3352 14.3893 64.0418 13.92 66.1965 13.92C67.4552 13.92 68.5645 14.0907 69.5245 14.432C70.5058 14.7733 71.2632 15.232 71.7965 15.808V13.76C71.7965 12.544 71.3912 11.616 70.5805 10.976C69.7912 10.336 68.6285 10.016 67.0925 10.016C65.1085 10.016 63.3912 10.4853 61.9405 11.424C61.5778 11.6373 61.2792 11.744 61.0445 11.744C60.8312 11.744 60.6178 11.6587 60.4045 11.488C60.1698 11.296 60.0525 11.0507 60.0525 10.752C60.0525 10.432 60.1912 10.1653 60.4685 9.952C61.2365 9.35467 62.2072 8.88533 63.3805 8.544C64.5752 8.18133 65.7912 8 67.0285 8C69.2898 8 71.0392 8.512 72.2765 9.536C73.5352 10.56 74.1645 12 74.1645 13.856V23.072C74.1645 23.904 73.7805 24.32 73.0125 24.32C72.6712 24.32 72.3938 24.2133 72.1805 24C71.9672 23.7653 71.8605 23.4667 71.8605 23.104V21.952C70.5378 23.5307 68.5538 24.32 65.9085 24.32ZM66.1965 22.368C67.8605 22.368 69.2152 22.0587 70.2605 21.44C71.3058 20.8 71.8285 19.9787 71.8285 18.976C71.8285 17.9733 71.3378 17.2053 70.3565 16.672C69.3965 16.1173 68.0312 15.84 66.2605 15.84C64.7672 15.84 63.6152 16.128 62.8045 16.704C61.9938 17.2587 61.5885 18.0693 61.5885 19.136C61.5885 20.1813 61.9832 20.9813 62.7725 21.536C63.5618 22.0907 64.7032 22.368 66.1965 22.368ZM85.05 24.32C82.9593 24.32 81.3167 23.7227 80.122 22.528C78.9487 21.3333 78.362 19.6693 78.362 17.536V9.28C78.362 8.87467 78.4687 8.56533 78.682 8.352C78.8953 8.11733 79.1833 8 79.546 8C79.9087 8 80.186 8.11733 80.378 8.352C80.5913 8.56533 80.698 8.87467 80.698 9.28V17.536C80.698 19.0507 81.1033 20.224 81.914 21.056C82.7247 21.888 83.8553 22.304 85.306 22.304C86.458 22.304 87.482 22.048 88.378 21.536C89.274 21.024 89.9673 20.3093 90.458 19.392C90.97 18.4747 91.226 17.4187 91.226 16.224V9.28C91.226 8.87467 91.322 8.56533 91.514 8.352C91.7273 8.11733 92.026 8 92.41 8C92.7727 8 93.05 8.11733 93.242 8.352C93.4553 8.56533 93.562 8.87467 93.562 9.28V23.04C93.562 23.4453 93.4553 23.7653 93.242 24C93.05 24.2133 92.7727 24.32 92.41 24.32C92.026 24.32 91.7273 24.2027 91.514 23.968C91.322 23.7333 91.226 23.424 91.226 23.04V21.152C90.4367 22.176 89.5193 22.9653 88.474 23.52C87.4287 24.0533 86.2873 24.32 85.05 24.32ZM102.501 24C101.199 24 100.186 23.6587 99.4605 22.976C98.7352 22.272 98.3725 21.312 98.3725 20.096V5.44C98.3725 4.24533 98.7245 3.30667 99.4285 2.624C100.154 1.94133 101.157 1.6 102.437 1.6H106.917C109.135 1.6 111.066 2.06933 112.708 3.008C114.373 3.92533 115.653 5.22667 116.549 6.912C117.445 8.59733 117.893 10.5707 117.893 12.832C117.893 15.0933 117.445 17.0667 116.549 18.752C115.653 20.416 114.373 21.7067 112.708 22.624C111.066 23.5413 109.135 24 106.917 24H102.501ZM106.597 22.016C109.413 22.016 111.589 21.216 113.125 19.616C114.682 18.016 115.461 15.7547 115.461 12.832C115.461 9.90933 114.682 7.63733 113.125 6.016C111.567 4.39467 109.391 3.584 106.597 3.584H102.469C101.957 3.584 101.541 3.75467 101.221 4.096C100.922 4.43733 100.773 4.88533 100.773 5.44V20.16C100.773 20.7147 100.922 21.1627 101.221 21.504C101.541 21.8453 101.957 22.016 102.469 22.016H106.597ZM129.768 24.32C126.994 24.32 124.85 23.6053 123.336 22.176C121.821 20.7467 121.064 18.72 121.064 16.096C121.064 13.5787 121.832 11.6053 123.368 10.176C124.904 8.72533 127.005 8 129.672 8C131.314 8 132.776 8.26667 134.056 8.8C135.336 9.312 136.328 10.048 137.032 11.008C137.757 11.9467 138.12 13.024 138.12 14.24C138.12 15.136 137.864 15.8293 137.352 16.32C136.861 16.8107 136.178 17.056 135.304 17.056H123.464C123.464 18.6987 124.018 19.9893 125.128 20.928C126.237 21.8453 127.784 22.304 129.768 22.304C130.984 22.304 132.029 22.176 132.904 21.92C133.778 21.6427 134.6 21.2053 135.368 20.608C135.773 20.2667 136.104 20.096 136.36 20.096C136.552 20.096 136.733 20.1813 136.904 20.352C137.202 20.608 137.352 20.8747 137.352 21.152C137.352 21.3653 137.224 21.6 136.968 21.856C136.093 22.688 135.069 23.3067 133.896 23.712C132.722 24.1173 131.346 24.32 129.768 24.32ZM134.6 15.168C134.984 15.168 135.272 15.0933 135.464 14.944C135.656 14.7733 135.752 14.4747 135.752 14.048C135.752 13.28 135.496 12.5867 134.984 11.968C134.472 11.3493 133.746 10.8693 132.808 10.528C131.89 10.1867 130.845 10.016 129.672 10.016C127.773 10.016 126.269 10.4853 125.16 11.424C124.072 12.3413 123.528 13.5893 123.528 15.168H134.6ZM146.252 24C144.951 24 143.937 23.6587 143.212 22.976C142.487 22.272 142.124 21.312 142.124 20.096V2.56C142.124 2.15467 142.231 1.84533 142.444 1.632C142.657 1.39733 142.945 1.28 143.308 1.28C143.692 1.28 143.991 1.39733 144.204 1.632C144.417 1.84533 144.524 2.15467 144.524 2.56V20.16C144.524 20.7147 144.673 21.1627 144.972 21.504C145.292 21.8453 145.708 22.016 146.22 22.016H156.876C157.708 22.016 158.124 22.3467 158.124 23.008C158.124 23.328 158.017 23.5733 157.804 23.744C157.591 23.9147 157.281 24 156.876 24H146.252ZM168.363 24.32C166.272 24.32 164.629 23.7227 163.435 22.528C162.261 21.3333 161.674 19.6693 161.674 17.536V9.28C161.674 8.87467 161.781 8.56533 161.995 8.352C162.208 8.11733 162.496 8 162.859 8C163.221 8 163.499 8.11733 163.691 8.352C163.904 8.56533 164.011 8.87467 164.011 9.28V17.536C164.011 19.0507 164.416 20.224 165.227 21.056C166.037 21.888 167.168 22.304 168.619 22.304C169.771 22.304 170.795 22.048 171.691 21.536C172.587 21.024 173.28 20.3093 173.771 19.392C174.283 18.4747 174.539 17.4187 174.539 16.224V9.28C174.539 8.87467 174.635 8.56533 174.827 8.352C175.04 8.11733 175.339 8 175.722 8C176.085 8 176.363 8.11733 176.555 8.352C176.768 8.56533 176.875 8.87467 176.875 9.28V23.04C176.875 23.4453 176.768 23.7653 176.555 24C176.363 24.2133 176.085 24.32 175.722 24.32C175.339 24.32 175.04 24.2027 174.827 23.968C174.635 23.7333 174.539 23.424 174.539 23.04V21.152C173.749 22.176 172.832 22.9653 171.787 23.52C170.741 24.0533 169.6 24.32 168.363 24.32ZM195.221 22.4C195.456 22.6773 195.573 22.944 195.573 23.2C195.573 23.4987 195.413 23.7973 195.093 24.096C194.901 24.2453 194.72 24.32 194.549 24.32C194.229 24.32 193.909 24.1493 193.589 23.808L188.053 17.6L182.517 23.808C182.218 24.1493 181.898 24.32 181.557 24.32C181.365 24.32 181.162 24.2347 180.949 24.064C180.672 23.8293 180.533 23.552 180.533 23.232C180.533 22.9547 180.65 22.6773 180.885 22.4L186.581 15.968L181.205 9.952C180.97 9.67467 180.853 9.38667 180.853 9.088C180.853 8.74667 180.992 8.46933 181.269 8.256C181.44 8.10667 181.653 8.032 181.909 8.032C182.293 8.032 182.613 8.192 182.869 8.512L188.053 14.336L193.237 8.512C193.536 8.192 193.845 8.032 194.165 8.032C194.421 8.032 194.634 8.10667 194.805 8.256C195.082 8.448 195.221 8.71467 195.221 9.056C195.221 9.376 195.104 9.67467 194.869 9.952L189.493 15.968L195.221 22.4Z" fill="#4D2952"/>
<path d="M198.582 24.126C198.302 24.126 198.069 24.0373 197.882 23.86C197.695 23.6733 197.602 23.44 197.602 23.16C197.602 22.8893 197.695 22.6607 197.882 22.474C198.078 22.278 198.311 22.18 198.582 22.18C198.853 22.18 199.086 22.278 199.282 22.474C199.478 22.6607 199.576 22.8893 199.576 23.16C199.576 23.4307 199.478 23.6593 199.282 23.846C199.086 24.0327 198.853 24.126 198.582 24.126ZM203.952 24.126C203.374 24.126 202.856 24.0233 202.398 23.818C201.95 23.6033 201.6 23.3093 201.348 22.936C201.096 22.5533 200.97 22.1193 200.97 21.634V19.464C200.97 18.96 201.092 18.512 201.334 18.12C201.586 17.728 201.936 17.4247 202.384 17.21C202.842 16.986 203.36 16.874 203.938 16.874C204.48 16.874 204.96 16.9533 205.38 17.112C205.8 17.2613 206.127 17.476 206.36 17.756C206.603 18.036 206.724 18.358 206.724 18.722C206.724 18.9833 206.617 19.1933 206.402 19.352C206.188 19.5013 205.917 19.5667 205.59 19.548C205.59 19.1187 205.436 18.7687 205.128 18.498C204.83 18.2273 204.442 18.092 203.966 18.092C203.49 18.092 203.103 18.2227 202.804 18.484C202.506 18.7453 202.356 19.086 202.356 19.506V21.55C202.356 21.9513 202.506 22.278 202.804 22.53C203.112 22.782 203.509 22.908 203.994 22.908C204.47 22.908 204.858 22.7727 205.156 22.502C205.464 22.2313 205.618 21.886 205.618 21.466C205.954 21.438 206.23 21.4987 206.444 21.648C206.659 21.7973 206.766 22.0027 206.766 22.264C206.766 22.628 206.645 22.95 206.402 23.23C206.169 23.51 205.838 23.7293 205.408 23.888C204.979 24.0467 204.494 24.126 203.952 24.126ZM210.676 24.126C210.088 24.126 209.561 24.0187 209.094 23.804C208.627 23.5893 208.259 23.2953 207.988 22.922C207.727 22.5393 207.596 22.1147 207.596 21.648V19.45C207.596 18.974 207.727 18.54 207.988 18.148C208.249 17.756 208.613 17.448 209.08 17.224C209.547 16.9907 210.079 16.874 210.676 16.874C211.273 16.874 211.805 16.9907 212.272 17.224C212.739 17.448 213.103 17.756 213.364 18.148C213.635 18.54 213.77 18.974 213.77 19.45V21.648C213.77 22.1147 213.635 22.5393 213.364 22.922C213.103 23.2953 212.734 23.5893 212.258 23.804C211.791 24.0187 211.264 24.126 210.676 24.126ZM210.676 22.922C211.208 22.922 211.628 22.8007 211.936 22.558C212.244 22.306 212.398 21.9747 212.398 21.564V19.506C212.398 19.0767 212.239 18.7313 211.922 18.47C211.614 18.2087 211.199 18.078 210.676 18.078C210.153 18.078 209.733 18.2087 209.416 18.47C209.108 18.7313 208.954 19.0767 208.954 19.506V21.564C208.954 21.9747 209.108 22.306 209.416 22.558C209.724 22.8007 210.144 22.922 210.676 22.922ZM215.205 18.008C215.205 17.252 215.649 16.874 216.535 16.874V17.756C216.442 17.8493 216.339 17.98 216.227 18.148L216.297 18.204C216.596 17.7747 216.909 17.448 217.235 17.224C217.562 16.9907 217.949 16.874 218.397 16.874C219.237 16.874 219.811 17.2753 220.119 18.078C220.642 17.2753 221.351 16.874 222.247 16.874C222.901 16.874 223.409 17.098 223.773 17.546C224.147 17.994 224.333 18.5773 224.333 19.296V23.174C224.333 23.5007 224.217 23.7433 223.983 23.902C223.759 24.0513 223.414 24.126 222.947 24.126V19.394C222.947 18.5073 222.588 18.064 221.869 18.064C221.477 18.064 221.141 18.1993 220.861 18.47C220.591 18.7313 220.455 19.1 220.455 19.576V23.174C220.455 23.51 220.343 23.7527 220.119 23.902C219.895 24.0513 219.555 24.126 219.097 24.126V19.394C219.097 18.9833 219.009 18.6613 218.831 18.428C218.654 18.1853 218.379 18.064 218.005 18.064C217.595 18.064 217.254 18.2133 216.983 18.512C216.722 18.8013 216.591 19.17 216.591 19.618V23.174C216.591 23.5007 216.475 23.7433 216.241 23.902C216.017 24.0513 215.672 24.126 215.205 24.126V18.008Z" fill="#4D2952"/>
<path d="M40.969 34.414V37.109H45.611V38H39.968V30.124H45.424V31.015H40.969V33.523H45.259V34.414H40.969ZM53.413 32.39H52.467C52.445 31.3633 51.7887 30.85 50.498 30.85C49.97 30.85 49.5447 30.971 49.222 31.213C48.8993 31.4477 48.738 31.7593 48.738 32.148C48.738 32.4413 48.8333 32.676 49.024 32.852C49.222 33.0207 49.5593 33.1673 50.036 33.292L51.906 33.776C53.094 34.0913 53.688 34.7513 53.688 35.756C53.688 36.482 53.3983 37.0723 52.819 37.527C52.3057 37.923 51.5687 38.121 50.608 38.121C49.3907 38.121 48.507 37.7543 47.957 37.021C47.6637 36.625 47.5097 36.0933 47.495 35.426H48.441V35.448C48.441 36.02 48.6353 36.4637 49.024 36.779C49.42 37.087 49.97 37.241 50.674 37.241C51.3193 37.241 51.7997 37.1347 52.115 36.922C52.489 36.6653 52.676 36.306 52.676 35.844C52.676 35.2573 52.1957 34.843 51.235 34.601L49.277 34.095C48.2503 33.831 47.737 33.226 47.737 32.28C47.737 31.532 48.0193 30.9527 48.584 30.542C49.0753 30.1827 49.7243 30.003 50.531 30.003C51.675 30.003 52.4927 30.3367 52.984 31.004C53.27 31.3927 53.413 31.8143 53.413 32.269C53.413 32.291 53.413 32.3313 53.413 32.39ZM58.784 31.015V38H57.783V31.015H55.187V30.124H61.358V31.015H58.784ZM63.4217 36.977C63.5757 36.977 63.7041 37.0283 63.8067 37.131C63.9094 37.2337 63.9607 37.362 63.9607 37.516C63.9607 37.6627 63.9094 37.791 63.8067 37.901C63.7041 38.0037 63.5757 38.055 63.4217 38.055C63.2751 38.055 63.1467 38.0037 63.0367 37.901C62.9341 37.791 62.8827 37.6627 62.8827 37.516C62.8827 37.362 62.9341 37.2337 63.0367 37.131C63.1467 37.0283 63.2751 36.977 63.4217 36.977ZM74.5077 32.39H73.5617C73.5397 31.3633 72.8833 30.85 71.5927 30.85C71.0647 30.85 70.6393 30.971 70.3167 31.213C69.994 31.4477 69.8327 31.7593 69.8327 32.148C69.8327 32.4413 69.928 32.676 70.1187 32.852C70.3167 33.0207 70.654 33.1673 71.1307 33.292L73.0007 33.776C74.1887 34.0913 74.7827 34.7513 74.7827 35.756C74.7827 36.482 74.493 37.0723 73.9137 37.527C73.4003 37.923 72.6633 38.121 71.7027 38.121C70.4853 38.121 69.6017 37.7543 69.0517 37.021C68.7583 36.625 68.6043 36.0933 68.5897 35.426H69.5357V35.448C69.5357 36.02 69.73 36.4637 70.1187 36.779C70.5147 37.087 71.0647 37.241 71.7687 37.241C72.414 37.241 72.8943 37.1347 73.2097 36.922C73.5837 36.6653 73.7707 36.306 73.7707 35.844C73.7707 35.2573 73.2903 34.843 72.3297 34.601L70.3717 34.095C69.345 33.831 68.8317 33.226 68.8317 32.28C68.8317 31.532 69.114 30.9527 69.6787 30.542C70.17 30.1827 70.819 30.003 71.6257 30.003C72.7697 30.003 73.5873 30.3367 74.0787 31.004C74.3647 31.3927 74.5077 31.8143 74.5077 32.269C74.5077 32.291 74.5077 32.3313 74.5077 32.39ZM78.1517 30.124V38H77.1287V30.124H78.1517ZM86.8025 30.124V38H85.6805L81.5995 31.609V38H80.6535V30.124H81.7425L85.8565 36.559V30.124H86.8025ZM95.5473 32.533H94.5133C94.4033 32.005 94.2126 31.62 93.9413 31.378C93.5893 31.0553 93.076 30.894 92.4013 30.894C91.58 30.894 90.9456 31.2167 90.4983 31.862C90.1096 32.4267 89.9153 33.1673 89.9153 34.084C89.9153 35.118 90.1756 35.921 90.6963 36.493C91.1583 36.9843 91.7523 37.23 92.4783 37.23C93.3656 37.23 93.978 36.9037 94.3153 36.251C94.4693 35.9503 94.5903 35.5507 94.6783 35.052H95.7123C95.4703 37.098 94.396 38.121 92.4893 38.121C91.4626 38.121 90.6523 37.8203 90.0583 37.219C89.2956 36.449 88.9143 35.415 88.9143 34.117C88.9143 32.8557 89.281 31.818 90.0143 31.004C90.6156 30.3367 91.4443 30.003 92.5003 30.003C94.2163 30.003 95.232 30.8463 95.5473 32.533ZM98.9351 34.414V37.109H103.577V38H97.9341V30.124H103.39V31.015H98.9351V33.523H103.225V34.414H98.9351ZM108.46 30.696C109.149 30.2487 109.846 30.025 110.55 30.025C111.239 30.025 111.756 30.2267 112.101 30.63C112.401 30.982 112.552 31.4513 112.552 32.038C112.552 32.5 112.434 32.951 112.2 33.391C111.987 33.765 111.613 34.271 111.078 34.909L109.527 36.669L109.076 37.219H112.684V37.527L112.299 38H108.086V37.208L108.922 36.207L110.616 34.238C110.953 33.8347 111.191 33.4973 111.331 33.226C111.521 32.8593 111.617 32.5037 111.617 32.159C111.617 31.7777 111.503 31.4697 111.276 31.235C111.048 31.0003 110.744 30.883 110.363 30.883C109.915 30.883 109.45 31.0553 108.966 31.4L108.46 30.696ZM116.714 38.143C115.739 38.143 115.042 37.6333 114.624 36.614C114.353 35.9613 114.217 35.151 114.217 34.183C114.217 32.9657 114.43 31.961 114.855 31.169C115.273 30.377 115.893 29.981 116.714 29.981C117.514 29.981 118.126 30.366 118.551 31.136C118.999 31.9207 119.222 32.9253 119.222 34.15C119.222 35.3013 119.039 36.2253 118.672 36.922C118.24 37.736 117.587 38.143 116.714 38.143ZM118.265 34.172C118.265 31.9353 117.748 30.817 116.714 30.817C115.688 30.817 115.174 31.928 115.174 34.15C115.174 35.0813 115.259 35.7817 115.427 36.251C115.669 36.9477 116.098 37.296 116.714 37.296C117.748 37.296 118.265 36.2547 118.265 34.172ZM123.538 30.124V37.582L123.065 38H122.603V31.246L121.239 32.39L120.744 31.774L122.702 30.124H123.538ZM126.524 34.062C126.993 33.4533 127.547 33.149 128.185 33.149C128.926 33.149 129.49 33.4167 129.879 33.952C130.187 34.3847 130.341 34.931 130.341 35.591C130.341 36.3977 130.11 37.0357 129.648 37.505C129.223 37.923 128.665 38.132 127.976 38.132C126.414 38.132 125.633 37.1053 125.633 35.052V34.634C125.633 33.2993 125.897 32.214 126.425 31.378C126.99 30.476 127.804 30.025 128.867 30.025C128.999 30.025 129.16 30.0323 129.351 30.047L129.725 30.509V30.85C129.432 30.806 129.19 30.784 128.999 30.784C127.584 30.784 126.759 31.8767 126.524 34.062ZM129.395 35.547C129.395 35.085 129.27 34.7037 129.021 34.403C128.779 34.095 128.467 33.941 128.086 33.941C127.675 33.941 127.298 34.1133 126.953 34.458C126.652 34.7587 126.502 35.085 126.502 35.437C126.502 35.9797 126.641 36.427 126.92 36.779C127.191 37.1163 127.551 37.285 127.998 37.285C128.409 37.285 128.742 37.1273 128.999 36.812C129.263 36.4893 129.395 36.0677 129.395 35.547Z" fill="#585858"/>
</svg>
